<svg width="56" height="45" viewBox="0 0 56 45" fill="none" xmlns="http://www.w3.org/2000/svg">
<path d="M51.1322 38.2682C56.4 32.5508 55.8696 25.2087 55.8529 25.125V2.79167C55.8529 2.05127 55.5588 1.3412 55.0352 0.817661C54.5117 0.294122 53.8016 0 53.0612 0H36.3112C33.232 0 30.7279 2.50412 30.7279 5.58333V25.125C30.7279 25.8654 31.022 26.5755 31.5455 27.099C32.0691 27.6225 32.7791 27.9167 33.5195 27.9167H42.1123C42.0533 29.2968 41.6409 30.6387 40.9147 31.8138C39.4965 34.05 36.8249 35.577 32.9696 36.3475L30.7279 36.7942V44.6667H33.5195C41.2887 44.6667 47.2155 42.5143 51.1322 38.2682ZM20.4043 38.2682C25.675 32.5508 25.1417 25.2087 25.125 25.125V2.79167C25.125 2.05127 24.8309 1.3412 24.3073 0.817661C23.7838 0.294122 23.0737 0 22.3333 0H5.58333C2.50412 0 0 2.50412 0 5.58333V25.125C0 25.8654 0.294121 26.5755 0.81766 27.099C1.3412 27.6225 2.05127 27.9167 2.79167 27.9167H11.3844C11.3254 29.2968 10.9131 30.6387 10.1868 31.8138C8.76863 34.05 6.097 35.577 2.24171 36.3475L0 36.7942V44.6667H2.79167C10.5609 44.6667 16.4876 42.5143 20.4043 38.2682Z" fill="#D2D2D2"/>
</svg>
